<svg width="40" height="40" viewBox="0 0 40 40" fill="none" xmlns="http://www.w3.org/2000/svg">
<path d="M26.4735 25.5271C26.5997 25.6523 26.6707 25.8227 26.6707 26.0005C26.6707 26.1782 26.5997 26.3486 26.4735 26.4738C26.3483 26.6 26.1779 26.671 26.0001 26.671C25.8224 26.671 25.652 26.6 25.5268 26.4738L20.0001 20.9405L14.4735 26.4738C14.3483 26.6 14.1779 26.671 14.0001 26.671C13.8224 26.671 13.652 26.6 13.5268 26.4738C13.4006 26.3486 13.3296 26.1782 13.3296 26.0005C13.3296 25.8227 13.4006 25.6523 13.5268 25.5271L19.0601 20.0005L13.5268 14.4738C13.3577 14.3047 13.2916 14.0582 13.3535 13.8272C13.4154 13.5962 13.5959 13.4158 13.8269 13.3539C14.0579 13.292 14.3043 13.358 14.4735 13.5271L20.0001 19.0605L25.5268 13.5271C25.7882 13.2657 26.212 13.2657 26.4735 13.5271C26.7349 13.7885 26.7349 14.2124 26.4735 14.4738L20.9401 20.0005L26.4735 25.5271Z" fill="#4C4DDC"/>
<rect x="0.5" y="0.5" width="39" height="39" rx="19.5" stroke="#EDEDED"/>
</svg>
